<svg width="54" height="54" viewBox="0 0 54 54" fill="none" xmlns="http://www.w3.org/2000/svg">
<g clip-path="url(#clip0_2048_174)">
<path d="M10.1127 24.4802L10.498 25.6139C10.6385 26.0279 10.4366 26.4768 10.0437 26.6518L6.08825 28.6114C5.68185 28.8104 5.19089 28.651 4.97802 28.2555L1.93846 22.6139C1.74999 22.2635 1.83497 21.8382 2.12189 21.5866L12.6032 11.6517L10.4395 8.95464C10.1501 8.59368 10.2082 8.06528 10.5695 7.77584C10.6125 7.73839 10.66 7.70936 10.7075 7.68538V7.68244C12.0298 6.99502 13.3361 7.02447 14.5839 7.45694C15.6377 7.82043 16.6306 8.47125 17.5494 9.20117C19.0921 9.12418 20.5254 9.3177 21.8506 9.73714C25.6525 10.9399 28.5204 13.9664 30.5006 17.6278C32.4413 21.2172 33.5326 25.4335 33.8086 29.1024C33.992 31.55 33.8136 33.7776 33.2886 35.4423C33.1767 35.7957 32.8557 36.0242 32.5048 36.0313C31.7695 36.0927 31.0265 36.4407 30.4291 36.9691C29.9318 37.407 29.5419 37.9615 29.3429 38.5753C29.1489 39.1643 29.1308 39.8117 29.3694 40.4625C29.6382 41.1899 30.2221 41.9358 31.2339 42.6401C31.6159 42.9056 31.7089 43.4281 31.4459 43.8109C31.2815 44.0444 31.021 44.1714 30.7556 44.1714H9.57669C9.18123 44.1714 8.84678 43.898 8.75885 43.5265C8.56827 42.879 6.82616 36.3822 12.4522 30.7562C16.583 26.6253 16.968 25.4595 16.3016 23.8933C15.1333 24.9892 13.4821 24.7561 11.9658 24.5437C11.1989 24.4347 10.4846 24.3337 10.1127 24.4802ZM8.67135 25.4604L8.35498 24.5311C8.28346 24.3186 8.2965 24.0746 8.41346 23.8617C9.17829 22.4549 10.6171 22.6564 12.1968 22.8798C13.5481 23.0704 15.0588 23.2858 15.6322 21.913V21.916C15.7067 21.7406 15.8388 21.5866 16.0197 21.4936C16.4291 21.2786 16.936 21.4376 17.151 21.847L17.2915 22.1175C17.2995 22.131 17.3071 22.1469 17.3155 22.1604C18.9007 25.1709 19.4232 26.1667 13.6411 31.9467C9.42524 36.1651 9.90021 40.8643 10.2317 42.4891H28.6121C28.2381 42.0166 27.9697 41.5311 27.7922 41.0423C27.4127 40.0103 27.4388 38.9846 27.7446 38.0561C28.0421 37.1533 28.6075 36.3431 29.3164 35.7166C30.0387 35.0797 30.9146 34.6228 31.825 34.4373C32.1784 33.0296 32.2819 31.2219 32.1308 29.2278C31.873 25.7658 30.8456 21.7965 29.0215 18.4221C27.2352 15.1166 24.6828 12.3981 21.3433 11.3413C20.122 10.9563 18.7867 10.7889 17.3394 10.8979V10.8953C17.1325 10.9109 16.9204 10.8503 16.745 10.7069C15.8847 10.0005 14.9633 9.36103 14.037 9.03962C13.5351 8.86713 13.0252 8.78972 12.5102 8.85114L14.3924 11.2008L14.3954 11.2037C14.6663 11.5411 14.6394 12.0346 14.3205 12.3371L3.72013 22.3834L6.07226 26.7448L8.67135 25.4604Z" fill="#CAED63"/>
<path d="M6.73295 42.4893H33.2716C33.7474 42.4893 34.1769 42.6832 34.4899 42.9962C34.8004 43.3067 34.9943 43.74 34.9943 44.2145V47.082C34.9943 47.557 34.8004 47.9865 34.4899 48.3004C34.1769 48.6109 33.7469 48.804 33.2716 48.804H6.73295C6.26051 48.804 5.82761 48.6109 5.51671 48.3004C5.20371 47.9865 5.00977 47.5566 5.00977 47.082V44.2145C5.00977 43.7396 5.20371 43.3067 5.51671 42.9962H5.51965C5.83055 42.6832 6.26051 42.4893 6.73295 42.4893ZM33.2716 44.1721H6.73295C6.72244 44.1721 6.7115 44.1779 6.7035 44.1826L6.70645 44.1859C6.69846 44.1935 6.69341 44.204 6.69341 44.2145V47.082C6.69341 47.0926 6.69888 47.1035 6.70645 47.1085C6.71444 47.117 6.72244 47.1216 6.73295 47.1216H33.2716C33.2821 47.1216 33.293 47.1165 33.2981 47.1085C33.3065 47.1035 33.3111 47.093 33.3111 47.082V44.2145C33.3111 44.204 33.3061 44.1931 33.2981 44.1859C33.293 44.1775 33.2825 44.1729 33.2716 44.1729V44.1721Z" fill="#CAED63"/>
<path d="M2.11519 52.1768H37.8877C37.9963 52.1768 38.0922 52.1339 38.1612 52.0649V52.0623C38.2327 51.99 38.2752 51.8949 38.2752 51.7864V49.1949C38.2752 49.0863 38.2323 48.9879 38.1633 48.9189L38.1608 48.9164C38.0918 48.8474 37.9954 48.8045 37.8873 48.8045H2.11519C2.00917 48.8045 1.91073 48.8474 1.84173 48.9164L1.83921 48.9189C1.77021 48.9879 1.7273 49.0863 1.7273 49.1949V51.7864C1.7273 51.8949 1.77232 51.9908 1.84131 52.0623V52.0649C1.91073 52.1343 2.00917 52.1768 2.11519 52.1768ZM37.8882 53.8596H2.11519C1.54977 53.8596 1.0323 53.6261 0.655358 53.2491L0.652833 53.2517C0.27841 52.8777 0.0449219 52.3568 0.0449219 51.7868V49.1953C0.0449219 48.6273 0.27841 48.1099 0.652833 47.7325H0.655358V47.73C1.0323 47.3551 1.54977 47.1221 2.11519 47.1221H37.8877C38.4532 47.1221 38.9706 47.3556 39.348 47.73L39.3505 47.7325C39.7254 48.1095 39.9584 48.6273 39.9584 49.1953V51.7868C39.9584 52.3568 39.7249 52.8781 39.3505 53.2517V53.2491C38.9744 53.6265 38.4532 53.8596 37.8882 53.8596Z" fill="#CAED63"/>
<path d="M38.7402 11.1128C38.7402 10.6484 39.1172 10.271 39.5816 10.271C40.0465 10.271 40.4239 10.6479 40.4239 11.1128V22.4974H47.9717C48.4361 22.4974 48.8131 22.8718 48.8131 23.3363V33.4751C48.8131 33.9396 48.4361 34.3165 47.9717 34.3165C47.5068 34.3165 47.1294 33.9396 47.1294 33.4751V24.1777H39.5816C39.1172 24.1777 38.7402 23.8007 38.7402 23.3358V11.1128Z" fill="#CAED63"/>
<path d="M36.9825 15.3022C36.693 15.6632 36.165 15.7191 35.8041 15.4297C35.4427 15.1402 35.3842 14.6123 35.6766 14.2509L38.9257 10.2286C39.2181 9.8676 39.7465 9.81206 40.1074 10.1011C40.1558 10.1411 40.1979 10.1835 40.2349 10.2286V10.226L43.4869 14.2454C43.7793 14.6064 43.7238 15.1373 43.362 15.4292C43.0014 15.7212 42.4705 15.6657 42.1781 15.3043L39.579 12.0918L36.9825 15.3022Z" fill="#CAED63"/>
<path d="M39.5825 0.00976562C40.4807 0.00976562 41.2922 0.373251 41.8825 0.963072C42.4694 1.54995 42.8324 2.36484 42.8324 3.2622C42.8324 4.15997 42.4694 4.97192 41.8825 5.56174C41.2927 6.14862 40.4807 6.51211 39.5825 6.51211C38.6852 6.51211 37.8703 6.14862 37.2834 5.56174C36.6944 4.97234 36.3301 4.15997 36.3301 3.2622C36.3301 2.36484 36.694 1.54995 37.2834 0.963072C37.8703 0.373671 38.6852 0.00976562 39.5825 0.00976562ZM40.6927 2.15239C40.4083 1.868 40.0158 1.69299 39.5833 1.69299C39.1504 1.69299 38.7575 1.868 38.4731 2.15239C38.1887 2.43678 38.0137 2.8293 38.0137 3.2622C38.0137 3.6951 38.1887 4.08803 38.4731 4.372C38.7575 4.65345 39.15 4.83141 39.5833 4.83141C40.0154 4.83141 40.4083 4.65345 40.6927 4.372C40.9746 4.08761 41.1521 3.6951 41.1521 3.2622C41.1517 2.82677 40.9746 2.43636 40.6927 2.15239Z" fill="#CAED63"/>
<path d="M47.9712 37.6699C48.8685 37.6699 49.6809 38.0338 50.2703 38.6207C50.8572 39.2097 51.2211 40.0225 51.2211 40.9198C51.2211 41.8205 50.8572 42.6321 50.2703 43.219C49.6813 43.8088 48.8685 44.1723 47.9712 44.1723C47.0705 44.1723 46.2589 43.8092 45.6712 43.219C45.0822 42.6321 44.7188 41.8205 44.7188 40.9198C44.7188 40.0225 45.0818 39.2101 45.6712 38.6207C46.2589 38.0338 47.0709 37.6699 47.9712 37.6699ZM49.078 39.813C48.797 39.5286 48.4032 39.3536 47.9712 39.3536C47.5358 39.3536 47.1453 39.5286 46.861 39.813C46.5766 40.094 46.4016 40.4869 46.4016 40.9198C46.4016 41.3553 46.5766 41.7457 46.861 42.0301C47.1453 42.3136 47.5358 42.4895 47.9712 42.4895C48.4032 42.4895 48.797 42.3136 49.078 42.0301C49.3624 41.7457 49.5374 41.3553 49.5374 40.9198C49.5374 40.4865 49.3624 40.094 49.078 39.813Z" fill="#CAED63"/>
<path d="M52.4575 10.6906C52.7869 10.3616 53.3178 10.3616 53.6472 10.6906C53.9758 11.0171 53.9758 11.5509 53.6472 11.8799L49.266 16.2607C48.9375 16.5896 48.4032 16.5896 48.0771 16.2607C47.7477 15.9317 47.7477 15.4003 48.0771 15.0713L52.4575 10.6906Z" fill="#CAED63"/>
<path d="M53.6472 15.0713C53.9758 15.4003 53.9758 15.9317 53.6472 16.2607C53.3178 16.5896 52.7869 16.5896 52.4575 16.2607L48.0771 11.8799C47.7477 11.5509 47.7477 11.0171 48.0771 10.6906C48.4032 10.3616 48.9375 10.3616 49.266 10.6906L53.6472 15.0713Z" fill="#CAED63"/>
<path d="M29.2758 3.01285C29.6052 2.68387 30.1362 2.68387 30.4656 3.01285C30.7941 3.33932 30.7941 3.87319 30.4656 4.20217L26.0844 8.5825C25.7558 8.91149 25.2215 8.91149 24.8955 8.5825C24.5661 8.25351 24.5661 7.72217 24.8955 7.39318L29.2758 3.01285Z" fill="#CAED63"/>
<path d="M30.4652 7.39318C30.7947 7.72217 30.7947 8.25351 30.4652 8.5825C30.1358 8.91149 29.6049 8.91149 29.2755 8.5825L24.8952 4.20217C24.5662 3.87319 24.5662 3.3389 24.8952 3.01285C25.2216 2.68387 25.7555 2.68387 26.0845 3.01285L30.4652 7.39318Z" fill="#CAED63"/>
<path d="M19.8288 14.2456C19.4039 14.0601 19.2099 13.5662 19.3934 13.1413C19.5789 12.7164 20.0728 12.5224 20.4977 12.7059C22.9453 13.7706 25.5928 16.1787 27.435 19.9192C28.8978 22.8927 29.8616 26.7185 29.8196 31.3917C29.8162 31.8536 29.4367 32.228 28.9748 32.2226C28.5103 32.22 28.1384 31.8406 28.1439 31.3778C28.1835 26.9949 27.2861 23.424 25.9294 20.6626C24.2756 17.307 21.955 15.1699 19.8288 14.2456Z" fill="#CAED63"/>
</g>
<defs>
<clipPath id="clip0_2048_174">
<rect width="53.8496" height="53.8496" fill="white"/>
</clipPath>
</defs>
</svg>
